<?xml version="1.0" encoding="utf-8"?>
<!-- Generator: Adobe Illustrator 16.0.0, SVG Export Plug-In . SVG Version: 6.00 Build 0)  -->
<!DOCTYPE svg PUBLIC "-//W3C//DTD SVG 1.1//EN" "http://www.w3.org/Graphics/SVG/1.1/DTD/svg11.dtd">
<svg version="1.1" id="Camada_1" xmlns="http://www.w3.org/2000/svg" xmlns:xlink="http://www.w3.org/1999/xlink" x="0px" y="0px"
	 width="394px" height="380px" viewBox="0 0 394 380" enable-background="new 0 0 394 380" xml:space="preserve">
<path fill-rule="evenodd" clip-rule="evenodd" fill="#77727B" d="M378.706,82.74c-6.62-8.611-42.408-56.96-59.06-67.622
	c-8.252-4.654-35.979-13.451-59.331-7.805c-15.896,3.844-69.648,7.354-51.604,61.66c1.167,3.511,0.047,4.763-3.153,5.477
	c-3.125,0.697-6.202,1.069-9.387,0.369c-1.135-0.25-2.602-1.076-3.526,0.885c7.06,5.167,14.714-1.297,22.241,0.531
	c-1.311,2.02-2.908,2.168-4.259,2.713c-18.673,7.534-37.48,14.752-56.012,22.619c-34.497,14.643-64.538,35.775-89.55,63.727
	c-4.319,4.827-8.904,8.032-15.02,9.867c-13.758,4.127-27.138,9.159-37.641,19.609c-0.981,1.576-1.962,3.155-2.945,4.736
	c2.222,0.242,3.089-1.672,4.358-2.844c11.67-10.777,25.637-16.878,40.953-20.271c0.376-0.047,0.753-0.094,1.129-0.141
	c-0.093,0.365-0.185,0.729-0.276,1.096c-1.52,4.048-3.191,8.046-4.512,12.157c-0.953,2.964-1.322,6.064,0.373,9.636
	c1.647-2.188,0.985-3.753,1.255-5.18c2.742-14.452,5.753-19.967,19.683-22.448c17.242-3.071,33.937-8.323,50.198-14.864
	c7.554-3.039,15.107-6.084,22.59-9.293c2.764-1.186,3.553,0.231,4.219,2.396c0.608,1.979,0.264,3.024-2.079,3.414
	c-7.121,1.185-8.05,2.589-6.267,9.981c0.677,2.804,0.448,4.581-2.652,5.158c-4.429,0.824-5.393,3.546-3.783,7.344
	c1.71,4.034-0.446,5.554-3.813,6.324c-1.612,0.369-3.305,0.368-4.951,0.607c-2.184,0.318-4.401,1.574-3.973,3.699
	c0.964,4.791-2.287,6.877-4.959,9.506c-2.157,2.122-4.081,4.473-4.893,7.434c-1.591,5.799-5.14,9.172-11.242,9.674
	c-2.708,0.223-4.624,1.674-4.366,4.428c0.354,3.785-1.701,3.641-4.483,4.01c-4.651,0.616-8.204,5.26-13.527,4.043
	c-0.162-0.037-0.684,0.75-0.762,1.199c-1.086,6.287-5.879,6.751-10.893,7.195c-9.874,0.874-17.67,5.468-23.398,13.578
	c-1.818,2.574-2.633,5.365-2.054,8.491c0.222,1.198,0.74,2.288,2.114,2.456c1.109,0.135,2.03-0.512,2.387-1.471
	c2.596-6.967,11.471-6.846,14.781-13.134c0.575-1.092,3.043-2.241,4.387-0.802c1.377,1.475,0.58,3.523-0.634,4.998
	c-1.049,1.275-2.346,2.355-3.585,3.463c-2.976,2.664-6.316,5.002-8.916,7.988c-9.71,11.16-21.164,20.328-32.75,29.366
	c-2.155,1.681-4.432,3.206-3.212,6.504c1.272,3.441,3.917,4.241,7.239,3.769c3.75-0.533,6.842-2.425,9.873-4.559
	c20.924-14.726,39.8-31.803,57.64-50.074c2.231-2.285,4.471-4.872,7.774-5.109c7.464-0.533,11.533-5.143,14.435-11.266
	c1.321-2.787,3.337-4.082,6.321-3.846c3.071,0.242,5.574-0.534,7.262-3.315c0.617-1.015,1.575-1.86,2.841-1.791
	c4.762,0.262,7.851-3.503,11.938-4.873c3.019-1.012,5.081-2.876,5.153-6.511c0.022-1.11,1.338-2.203,2.084-3.289
	c4.974-7.229,13.569-10.822,18.34-18.252c3.584-5.582,7.917-10.151,14.486-12.363c2.098-0.706,4.251-2.312,5.566-4.102
	c7.918-10.782,17.528-19.327,29.817-24.969c3.316-1.523,6.269-3.543,10.07-3.875c6.201-0.542,12.224-1.994,17.437-5.551
	c2.827-1.93,3.3-0.342,3.921,1.866c0.604,2.15-0.707,2.819-2.242,3.774c-4.654,2.899-7.86,7.086-7.1,12.696
	c0.451,3.329-0.666,4.847-2.995,6.562c-6.154,4.533-12.607,8.694-17.642,14.632c-2.197,2.592-5.331,4.01-8.728,4.497
	c-8.063,1.156-14.724,4.901-20.561,10.48c-3.901,3.729-8.596,6.229-13.8,7.799c-5.577,1.683-6.183,4.034-2.083,8.401
	c2.497,2.661,1.817,4.406-1.238,5.564c-3.307,1.254-6.732,1.891-10.286,1.007c-3.633-0.903-4.561,0.819-3.887,4.064
	c0.337,1.623,1.431,3.632,0.852,4.813c-3.063,6.249-2.019,14.03-7.359,19.425c-0.852,0.86-1.115,2.37-1.485,3.628
	c-2.242,7.62-6.557,13.333-14.402,15.837c-2.24,0.715-4.8,1.287-5.718,3.623c-1.202,3.057-3.539,4.682-6.102,6.262
	c-2.019,1.244-3.719,2.889-4.814,4.984c-3.078,5.89-8.196,9.982-12.559,14.772c-10.13,11.121-24.985,16.618-34.083,28.956
	c-0.991,1.345-3.117,1.847-4.707,2.756c-6.928,3.965-14.659,6.971-19.989,13.056c-6.378,7.282-13.452,12.265-23.523,12.015
	c-2.184-0.055-4.253,0.961-5.751,2.669c-1.652,1.883-3.074,3.896-0.91,6.366c2.647,2.55,6.047,1.967,9.247,2.217
	c4.833-1.809,9.83-3.199,14.38-5.723c25.133-13.942,44.833-34.345,64.722-54.508c3.914-3.967,6.836-9.273,11.357-12.203
	c9.037-5.859,17.715-12.375,24.074-20.703c13.479-17.654,28.425-33.465,46.937-45.854c3.992-2.672,7.55-6.025,11.146-9.246
	c5.478-4.906,9.121-5.504,16.076-2.275c-4.729,7.82-16.7,17.602-26.372,21.283c-4.473,1.702-9.324,3.706-11.122,7.959
	c-2.764,6.539-6.824,12.615-8.042,19.779c-0.236,1.391,0.299,2.644,1.469,3.514c0.856,0.637,2.458,1,2.472-0.074
	c0.059-4.859,5.135-7.035,5.859-11.263c1.616-9.427,7.746-14.591,15.812-18.528c10.22-4.988,18.595-12.268,24.857-21.851
	c0.731-1.12,1.322-2.585,2.67-2.844c4.248-0.815,6.146-3.367,6.635-7.54c0.327-2.793,2.281-3.322,4.828-2.537
	c6.798,2.098,7.62,1.602,9.396-5.361c2.545-9.977,3.035-10.405,12.778-11.191c1.05-3.672,1.382-7.392,1.076-11.216
	c-0.278-3.473,1.509-6.001,4.311-7.854c0.716-0.473,1.985-0.668,2.108,0.249c0.464,3.473,3.969,6.639,1.703,10.293
	c-2.163,3.488-4.939,6.595-7.444,9.869c-5.667,7.782-11.379,15.534-16.997,23.354c-14.646,20.378-29.705,40.524-37.584,64.823
	c-0.773,2.389-0.74,4.75-7.41,7.698c-14.505,6.411-98.563,47.484-105.907,81.409c2.097-0.51,4.637-3.046,5.038-4.373
	c9.432-31.177,101.721-73.542,104.269-74.974c1.663,1.469-36.859,64.775-60.337,87.563c0,2.293,1.592,2.211,5.625-1.125
	c28.208-23.333,55.528-90.871,78.167-106.373c25.379-17.378,44.789-41.695,64.927-64.826c0.941-1.08,1.466-2.848,3.219-2.859
	c3.34-0.022,8.442,8.672,6.804,11.634c-7.505,13.565-15.431,26.879-24.762,39.286c-11.659,15.504-23.874,30.458-41.497,39.762
	c-0.756,0.399-1.946,0.889-0.662,3.129c33.892-19.092,51.592-51.873,70.953-83.816c1.369,3.408-0.502,7.035,3.578,8.971
	c0-2.763-0.152-5.188,0.059-7.582c0.121-1.381-0.049-3.26,1.781-3.777c1.557-0.439,2.335,1.043,3.214,1.958
	c3.959,4.128,8.596,4.954,13.667,2.59c2.346-1.093,4.308-0.956,6.645-0.028c5.65,2.242,11.343,1.354,15.285-2.97
	c8.341-9.147,30.998-21.93,41.479-63.698C387.844,132.759,396.334,105.667,378.706,82.74z M177.238,126.141
	c-0.985,1.416-3.023,1.128-4.702,0.85c-2.33-0.386-4.783-1.104-5.418,2.385c-0.129,0.713-0.756,1.446-1.352,1.068
	c-5.343-3.393-7.019,1.991-8.742,4.423c-4.125,5.821-9.502,9.069-15.881,11.911c-22.745,10.13-46.267,17.712-70.529,23.124
	c-0.974,0.217-1.958,0.478-2.945,0.509c-0.771,0.025-1.83-0.019-2.261-0.489c-0.613-0.671,0.037-1.536,0.58-2.183
	c0.962-1.147,1.88-2.338,2.919-3.413c27.453-28.408,59.262-50.313,96.215-64.596c14.438-5.58,28.767-11.443,43.189-17.067
	c1.588-0.62,3.948-2.841,5.053,0.07c0.951,2.505,1.437,5.638-1.914,7.44c-3.815,2.052-7.993,2.831-13.013,3.399
	c4.177,3.725,7.839,0.386,11.326,0.735c0.504-0.383,1.084-0.68,1.463,0.027c0.121,0.227-0.291,0.738-0.459,1.119
	c-6.091,9.322-13.965,17.199-23.116,23.11C183.996,120.925,179.908,122.301,177.238,126.141z M226.11,100.729
	c-0.256,2.02-1.646,2.25-3.265,2.099c-4.978-0.467-9.445,0.124-13.071,4.297c-1.091,1.255-3.627,1.253-5.513,1.817
	c0.015,0.032,0.019,0.059,0.035,0.091c-0.056-0.012-0.091-0.002-0.143-0.009c-0.289,0.289-0.578,0.578-0.868,0.866
	c0.007,0.051-0.002,0.085,0.009,0.141c-0.027,0.008-0.053,0.019-0.08,0.027c0.335,9.374-8.57,8.12-13.487,11.448
	c4.36-3.972,7.309-9.59,13.487-11.448c-0.001-0.033,0-0.063-0.001-0.096c0.024-0.024,0.048-0.048,0.072-0.072
	c-0.09-0.67,0.198-0.959,0.868-0.866c0.024-0.024,0.049-0.049,0.073-0.073c0.011-0.003,0.022-0.005,0.034-0.009
	c-0.75-1.552,0.537-2.33,1.333-3.28c2.021-2.411,4.138-4.747,6.071-7.225c4.506-5.773,6.707-6.116,12.748-2.005
	C226.056,97.547,226.333,98.975,226.11,100.729z M285.578,191.775c-13.857,17.102-28.645,33.33-45.084,48.008
	c-10.176,9.085-20.414,18.09-31.839,25.621c-0.411,0.122-0.821,0.243-1.231,0.365c0.057-0.425,0.113-0.85,0.17-1.273
	c1.371-7.53,5.408-13.9,9.098-20.377c13.967-24.511,30.795-47.064,47.87-69.44c0.772-1.012,1.399-2.292,3.319-2.655
	c1.503,6.347-3.067,12.31-0.482,18.737c0.935-4.7,1.819-9.41,2.83-14.093c0.371-1.722-0.193-4.3,3.02-3.962
	c2.813,0.297,4.219,1.873,4.133,4.632c-0.111,3.49-0.41,6.973-0.578,10.461c-0.048,0.999,0.027,2.026,1.257,2.618
	c0.269-0.326,0.772-0.653,0.815-1.031c0.748-6.716,1.256-6.837,6.946-3.11C289.278,188.541,286.945,190.087,285.578,191.775z"/>
</svg>
