<?xml version="1.0" encoding="utf-8"?>
<!-- Generator: Adobe Illustrator 16.0.0, SVG Export Plug-In . SVG Version: 6.00 Build 0)  -->
<!DOCTYPE svg PUBLIC "-//W3C//DTD SVG 1.1//EN" "http://www.w3.org/Graphics/SVG/1.1/DTD/svg11.dtd">
<svg version="1.1" id="Camada_1" xmlns="http://www.w3.org/2000/svg" xmlns:xlink="http://www.w3.org/1999/xlink" x="0px" y="0px"
	 width="394px" height="112px" viewBox="0 0 394 112" enable-background="new 0 0 394 112" xml:space="preserve">
<g>
	<path fill="#FFFFFF" d="M36.757,24.484L11.468,89.889H31.89l4.406-12.004h21.742l4.922,12.004h20.678L55.7,24.484H36.757z
		 M51.784,62.82h-9.898l4.689-12.688L51.784,62.82z"/>
	<path fill="#FFFFFF" d="M113.317,68.992h6.131v4.33c-0.529,0.021-1.09,0.033-1.705,0.033c-17.604,0-18.975-12.477-18.975-16.301
		c0-9.797,7.314-16.381,18.197-16.381c5.543,0,11.158,1.279,16.242,3.701l3.98,1.896V28.051l-1.762-0.695
		c-6.246-2.465-12.207-3.563-19.326-3.563c-25.777,0-37.318,16.924-37.318,33.697c0,15.262,9.773,33.088,37.318,33.088
		c8.484,0,15.748-1.213,20.475-2.123l2.256-0.436V53.15h-25.514V68.992z"/>
	<path fill="#FFFFFF" d="M189.542,58.008c0,6.568-1.146,9.625-2.125,11.061c-2.363,3.545-6.738,4.803-9.77,4.803
		c-3.352,0-6.598-1.322-8.686-3.535c-2.508-2.643-2.947-6.082-2.947-12.328V24.484H146.63v37.842c0,8.723,2.805,14.047,4.449,16.408
		c7.172,10.615,19.09,11.844,27.432,11.844c11.6,0,20.178-3.795,25.48-11.252c4.934-6.809,4.934-14.004,4.934-17.865V24.484h-19.383
		V58.008z"/>
	<rect x="219.228" y="24.484" fill="#FFFFFF" width="19.383" height="65.404"/>
	<polygon fill="#FFFFFF" points="291.413,24.484 278.767,54.238 265.442,24.484 244.468,24.484 274.196,89.889 283.856,89.889 
		312.263,24.484 	"/>
	<path fill="#FFFFFF" d="M345.245,24.484h-18.943l-25.295,65.404h20.428l4.402-12.004h21.744l4.922,12.004h20.678L345.245,24.484z
		 M341.327,62.82h-9.896l4.686-12.688L341.327,62.82z"/>
</g>
</svg>
