<?xml version="1.0" encoding="utf-8"?>
<!-- Generator: Adobe Illustrator 16.0.0, SVG Export Plug-In . SVG Version: 6.00 Build 0)  -->
<!DOCTYPE svg PUBLIC "-//W3C//DTD SVG 1.1//EN" "http://www.w3.org/Graphics/SVG/1.1/DTD/svg11.dtd">
<svg version="1.1" id="Camada_1" xmlns="http://www.w3.org/2000/svg" xmlns:xlink="http://www.w3.org/1999/xlink" x="0px" y="0px"
	 width="158.75px" height="78.25px" viewBox="0 0 158.75 78.25" enable-background="new 0 0 158.75 78.25" xml:space="preserve">
<path fill="#7FBAD1" d="M4.195,15.778c0-0.002,0.007-0.005,0.018-0.007c-0.011-0.193-0.018-0.387-0.018-0.587
	c0-0.273,0.016-0.545,0.037-0.818c-0.037,0.36-0.055,0.722-0.055,1.093c0,0.501,0,48.026,0,48.521
	c0,6.62,5.431,11.989,12.127,11.989c6.409,0,11.652-4.912,12.097-11.138c0-0.024,0.002-0.047,0.003-0.068c0-0.005,0-0.008,0-0.014
	c0.018-0.254,0.027-0.508,0.027-0.769c0-0.06,0-2.918,0-7.227C15.426,41.845,4.183,22.594,4.195,15.778z"/>
<path fill="#BC759D" d="M39.173,33.672c-7.09-9.405-10.709-20.346-11.771-22.944c-1.519-3.569-5.51-7.265-11.197-7.265
	c-6.672,0-12.01,5.208-12.01,11.722c0,0.2,0.007,0.394,0.018,0.587c-0.011,0.002-0.018,0.005-0.018,0.007
	C4.176,27.493,37.389,75.929,55.693,75.929c5.732,0,11.898-4.477,11.898-11.939c0-4.188-2.252-7.637-5.748-9.916
	C57.405,51.18,49.596,47.498,39.173,33.672z"/>
<path fill="#7FBAD1" d="M53.683,2.379c-0.119,0-0.237,0-0.357,0.003c-1.257,0.03-2.931,1.113-4.718,3.052
	c-4.776,5.177-8.7,14.188-8.539,16.888l0.002,0.061c0.003,1.83,3.749,1.972,4.898,1.972c5.815,0,14.988-2.764,18.857-6.723
	c1.115-1.146,1.669-2.282,1.642-3.368C65.463,14.147,65.043,2.379,53.683,2.379z"/>
<g>
	<g>
		<path fill-rule="evenodd" clip-rule="evenodd" fill="#B1B1B0" d="M86.155,33.805c0.254-0.138,0.383-0.204,0.514-0.278
			c2.24-1.262,3.211-3.608,2.597-6.28c-0.545-2.375-2.48-4.019-4.968-4.149c-1.057-0.055-5.672-0.021-6.92-0.036
			c-0.76-0.014-0.755,0.478-0.75,1.009c0,0.876,0,1.75,0.002,2.626c-0.007,0.097-0.008,0.197-0.008,0.302
			c-0.005,4.376-0.003,8.747,0,13.125c0,0.292,0.028,0.576,0.046,0.846c1.152,0,2.22,0,3.375,0c0-2.225-0.006-6.659-0.006-6.659
			h1.89c0.604,0,0.941,0.33,1.239,0.936c0.863,1.759,1.801,3.482,2.733,5.206c0.13,0.237,0.391,0.548,0.6,0.563
			c1.156,0.052,2.322,0.024,3.652,0.024C88.773,38.548,87.482,36.208,86.155,33.805z M80.043,31.44c0.981,0,1.88,0.002,2.781,0
			c0.309-0.001,0.63,0.011,0.933-0.025c1.366-0.183,2.095-0.97,2.204-2.364c0.122-1.472-0.445-2.636-1.606-2.807
			c-1.398-0.211-2.833-0.177-4.313-0.252C80.043,27.886,80.043,29.586,80.043,31.44z"/>
		<path fill-rule="evenodd" clip-rule="evenodd" fill="#B1B1B0" d="M82.5,56.952c-1.969,1.883-3.226,3.927-2.505,6.73
			c-1.248,0-2.292,0-3.412,0c0-5.942,0-11.884,0-17.876c1.088,0,2.131,0,3.276,0c0,3.28,0,6.515,0,9.751
			c0.071,0.029,0.142,0.06,0.213,0.088c0.18-0.245,0.375-0.481,0.544-0.738c1.873-2.769,3.768-5.531,5.603-8.328
			c0.415-0.64,0.867-0.9,1.618-0.831c0.712,0.06,1.433,0.01,2.331,0.01c-0.25,0.409-0.409,0.682-0.581,0.947
			c-1.539,2.273-3.063,4.552-4.629,6.802c-0.35,0.497-0.37,0.839-0.026,1.348c1.756,2.638,3.466,5.299,5.192,7.956
			c0.162,0.247,0.309,0.503,0.562,0.911c-1.315,0-2.502,0.041-3.681-0.028c-0.239-0.01-0.505-0.37-0.669-0.63
			C85.058,61.06,83.803,59.034,82.5,56.952z"/>
		<path fill-rule="evenodd" clip-rule="evenodd" fill="#B1B1B0" d="M114.236,45.203c0-1.98,0-3.871,0-5.956
			c-0.939,0.509-1.752,0.945-2.558,1.383c-1.8,0.968-3.889,0.353-4.836-1.453c-0.219-0.426-0.415-0.877-0.525-1.349
			c-0.615-2.659-0.628-5.337-0.035-7.982c0.456-2.042,1.817-3.057,3.913-3.088c2.341-0.042,4.688-0.007,7.102-0.007
			c0,6.049,0,12.211,0,18.452C116.313,45.203,115.342,45.203,114.236,45.203z M114.187,29.727c-0.187-0.042-0.276-0.085-0.361-0.085
			c-0.721-0.005-1.441-0.01-2.167-0.006c-1.264,0.006-1.917,0.456-2.251,1.652c-0.454,1.629-0.459,3.278-0.072,4.914
			c0.238,0.986,0.909,1.682,1.85,1.508c1.016-0.189,1.95-0.821,2.918-1.275c0.052-0.021,0.078-0.159,0.078-0.248
			C114.187,34.033,114.187,31.873,114.187,29.727z"/>
		<path fill-rule="evenodd" clip-rule="evenodd" fill="#B1B1B0" d="M111.973,63.591c-1.658,0.6-2.526-0.199-3.004-1.684
			c-0.973,0.523-1.819,0.978-2.66,1.435c-1.635,0.885-3.655,0.358-4.629-1.216c-0.113-0.175-0.216-0.365-0.292-0.56
			c-1.143-3.113-1.063-6.285-0.284-9.436c0.397-1.629,1.641-2.578,3.298-2.65c2.495-0.106,5-0.028,7.572-0.028
			C111.973,54.075,111.973,58.849,111.973,63.591z M108.854,52.32c-0.895,0-1.704-0.006-2.508,0
			c-1.291,0.012-2.059,0.471-2.251,1.755c-0.216,1.414-0.248,2.875-0.163,4.302c0.082,1.312,0.72,2.105,1.793,1.978
			c1.061-0.124,2.057-0.821,3.078-1.275c0.043-0.024,0.051-0.166,0.051-0.261C108.854,56.688,108.854,54.56,108.854,52.32z"/>
		<path fill-rule="evenodd" clip-rule="evenodd" fill="#B1B1B0" d="M102.98,40.909c-1.67,0.614-2.499-0.246-3.022-1.671
			c-0.957,0.518-1.801,0.967-2.643,1.425c-1.697,0.915-3.817,0.338-4.701-1.392c-0.413-0.82-0.768-1.751-0.822-2.653
			c-0.116-1.977-0.165-3.978,0.029-5.947c0.265-2.705,1.764-3.911,4.497-3.931c2.194-0.013,4.387-0.002,6.662-0.002
			C102.98,31.395,102.98,36.169,102.98,40.909z M99.884,29.634c-0.924,0-1.702-0.004-2.485,0c-1.327,0.008-2.112,0.493-2.309,1.79
			c-0.211,1.385-0.247,2.813-0.161,4.207c0.086,1.36,0.737,2.171,1.825,2.045c1.059-0.126,2.058-0.815,3.074-1.279
			c0.056-0.026,0.052-0.223,0.052-0.34C99.884,33.957,99.884,31.855,99.884,29.634z"/>
		<path fill-rule="evenodd" clip-rule="evenodd" fill="#B1B1B0" d="M152.4,57.208c-2.831,0-5.557,0-8.278,0
			c-0.393,1.75,0.302,3.324,1.606,3.733c1.979,0.62,3.147,0.031,3.952-2.03c0.878,0,1.769,0,2.653,0
			c0.266,2.501-1.185,4.588-3.622,4.94c-1.284,0.185-2.643,0.077-3.938-0.085c-1.691-0.21-2.736-1.321-3.266-2.896
			c-0.814-2.42-0.948-4.917-0.447-7.411c0.638-3.153,2.761-4.423,6.239-4.33c3.135,0.083,4.811,1.746,5.083,4.87
			C152.474,55.035,152.4,56.082,152.4,57.208z M144.081,54.991c1.879,0,3.646,0,5.475,0c-0.009-1.112-0.074-2.162-1.059-2.789
			c-1.033-0.651-2.146-0.589-3.181,0.011C144.285,52.812,144.039,53.814,144.081,54.991z"/>
		<path fill-rule="evenodd" clip-rule="evenodd" fill="#B1B1B0" d="M146.355,34.539c-2.822,0-5.557,0-8.28,0
			c-0.338,1.875,0.367,3.49,1.751,3.728c2.404,0.426,3.091,0.021,3.844-2.043c0.886,0,1.783,0,2.668,0
			c0.239,3.048-1.658,5.015-4.983,5.129c-0.803,0.025-1.626-0.075-2.421-0.201c-1.781-0.289-2.938-1.359-3.473-3.054
			c-0.792-2.496-0.929-5.049-0.347-7.595c0.661-2.884,2.744-4.204,6.283-4.049c3.019,0.125,4.575,1.619,4.938,4.615
			C146.47,32.164,146.355,33.286,146.355,34.539z M143.485,32.316c0.167-2.077-0.76-3.218-2.551-3.218
			c-1.88-0.001-2.994,1.246-2.814,3.218C139.881,32.316,141.65,32.316,143.485,32.316z"/>
		<path fill-rule="evenodd" clip-rule="evenodd" fill="#B1B1B0" d="M120.678,26.63c0.976,0,1.957,0,3.041,0
			c0.017,0.323,0.054,0.643,0.054,0.956c0.004,2.625-0.012,5.249,0.01,7.872c0.005,0.501,0.07,1.038,0.244,1.504
			c0.36,0.964,1.292,1.273,2.216,0.813c2.527-1.261,2.527-1.261,2.527-4.061c0-2.348,0-4.686,0-7.083c1.078,0,2.061,0,3.113,0
			c0,4.776,0,9.546,0,14.397c-0.709,0-1.49,0.21-2.046-0.059c-0.492-0.242-0.721-1.012-1.127-1.639
			c-0.935,0.432-1.883,0.871-2.831,1.309c-1.885,0.873-3.725,0.277-4.68-1.605c-0.308-0.594-0.541-1.306-0.558-1.975
			c-0.066-3.375-0.045-6.751-0.051-10.131C120.591,26.845,120.636,26.763,120.678,26.63z"/>
		<path fill-rule="evenodd" clip-rule="evenodd" fill="#B1B1B0" d="M122.883,49.308c0.203-0.017,0.345-0.04,0.487-0.04
			c0.845-0.002,1.688-0.002,2.593-0.002c0,4.833,0,9.608,0,14.381c-2.041,0.279-2.041,0.279-3.139-1.648
			c-0.925,0.425-1.867,0.859-2.812,1.294c-2.125,0.98-4.26,0.088-5.008-2.159c-0.225-0.676-0.332-1.417-0.339-2.129
			c-0.036-3.044-0.021-6.087-0.021-9.139c0-0.17,0.043-0.34,0.066-0.553c1.026,0,2.008,0,3.077,0
			c0.021,0.337,0.05,0.658,0.053,0.979c0.002,2.626-0.017,5.244,0.018,7.867c0.003,0.529,0.083,1.093,0.282,1.583
			c0.358,0.874,1.259,1.153,2.104,0.747c2.601-1.237,2.601-1.237,2.601-4.11c0-2.049-0.004-4.102,0.001-6.152
			C122.846,49.938,122.869,49.643,122.883,49.308z"/>
		<path fill-rule="evenodd" clip-rule="evenodd" fill="#B1B1B0" d="M128.433,59.417c0.933,0,1.8,0,2.66,0
			c0.664,1.722,1.666,2.267,3.554,1.95c0.933-0.156,1.416-0.64,1.453-1.458c0.046-0.992-0.392-1.692-1.308-1.909
			c-0.786-0.191-1.597-0.304-2.397-0.424c-2.492-0.375-3.602-1.505-3.74-3.859c-0.136-2.204,1.011-3.751,3.255-4.372
			c1.496-0.412,2.986-0.355,4.454,0.127c1.832,0.591,2.834,2.341,2.49,4.355c-0.73,0-1.475,0.032-2.215-0.024
			c-0.168-0.017-0.403-0.302-0.467-0.509c-0.509-1.553-2.957-2.105-4.081-0.893c-0.767,0.823-0.291,2.212,0.86,2.453
			c0.938,0.203,1.893,0.351,2.841,0.535c2.376,0.464,3.397,1.76,3.422,4.346c0.024,2.031-1.195,3.624-3.383,3.929
			c-1.487,0.214-3.069,0.161-4.55-0.113C129.198,63.171,128.25,61.649,128.433,59.417z"/>
		<path fill-rule="evenodd" clip-rule="evenodd" fill="#B1B1B0" d="M99.894,49.315c-0.3,1.088-0.574,2.072-0.779,2.803
			c-1.229,0.352-2.3,0.649-3.365,0.968c-0.562,0.167-0.755,0.54-0.742,1.153c0.036,2.801,0.015,5.607,0.015,8.406
			c0,0.327,0,0.652,0,1.029c-1.074,0-2.054,0-3.11,0c0-4.758,0-9.529,0-14.297c1.752-0.334,2.021-0.236,3.056,1.077
			c1.431-0.458,2.841-0.923,4.26-1.352C99.39,49.059,99.613,49.223,99.894,49.315z"/>
		<path fill-rule="evenodd" clip-rule="evenodd" fill="#B1B1B0" d="M149.349,21.429c1.086,0,2.073,0,3.134,0
			c0,6.527,0,13.019,0,19.567c-1.032,0-2.045,0-3.134,0C149.349,34.489,149.349,27.998,149.349,21.429z"/>
	</g>
</g>
</svg>
