<?xml version="1.0" encoding="utf-8"?>
<!-- Generator: Adobe Illustrator 16.0.0, SVG Export Plug-In . SVG Version: 6.00 Build 0)  -->
<!DOCTYPE svg PUBLIC "-//W3C//DTD SVG 1.1//EN" "http://www.w3.org/Graphics/SVG/1.1/DTD/svg11.dtd">
<svg version="1.1" id="Camada_1" xmlns="http://www.w3.org/2000/svg" xmlns:xlink="http://www.w3.org/1999/xlink" x="0px" y="0px"
	 width="158.75px" height="78.25px" viewBox="0 0 158.75 78.25" enable-background="new 0 0 158.75 78.25" xml:space="preserve">
<path fill="#012237" d="M76.218,30.068c-4.958-4.249-7.891,0.982-8.01,1.2l-5.027,9.885c-3.678,1.985-7.898,4.182-11.798,6.021
	c-0.511-1.016-1.056-2.095-1.616-3.206c-3.501-7.033-8.475-16.991-8.502-17.045c-0.151-0.316-0.509-0.964-1.47-0.947
	c-0.925,0.015-1.265,0.707-1.437,1.029c-0.27,0.501-6.734,13.488-10.144,20.336c-3.868-1.815-8.032-4.003-11.669-5.996L11.48,31.321
	c0,0-2.953-5.544-8.014-1.207c-3.991,3.422,0.274,6.953,0.579,7.195l-0.004,0.004c0,0,4.462,2.672,10.314,5.874
	c0,0,7.707,15.622,8.072,16.305c0.174,0.322,0.514,1.029,1.441,1.029c0.978,0,1.223-0.646,1.395-0.996
	c0.038-0.064,0.07-0.125,0.096-0.174c0.367-0.684,4.279-8.482,4.279-8.482l0.003-0.01c4.206,1.839,8.01,3.092,10.173,3.117
	c2.161,0.025,6.066-1.238,10.25-3.027c0,0,3.894,7.767,4.261,8.446c0.076,0.14,0.182,0.351,0.351,0.548
	c0.2,0.276,0.525,0.53,1.142,0.53c0.925,0,1.265-0.706,1.438-1.029c0.368-0.678,7.977-16.114,7.977-16.114
	c5.912-3.283,10.388-6.052,10.388-6.052S80.353,33.613,76.218,30.068z M60.909,45.68l-4.27,8.501c0,0-0.315,0.667-0.852,0.667
	c-0.352,0-0.715-0.438-0.839-0.607c-0.005-0.006-0.006-0.01-0.006-0.01s-0.903-1.793-2.246-4.456
	C55.413,48.521,58.225,47.099,60.909,45.68z M27.048,49.687c-0.282,0.569-0.508,1.023-0.662,1.332
	c-0.123,0.242-0.24,0.476-0.351,0.695l-1.254,2.42c0,0-0.45,0.668-0.883,0.668c-0.538,0-0.854-0.667-0.854-0.667l-4.39-8.64
	C21.409,46.946,24.293,48.401,27.048,49.687z M6.474,35.604c0,0-3.098-1.381-0.534-3.501c2.267-1.873,3.468,1.29,3.468,1.29
	l2.796,5.534C8.778,36.985,6.474,35.604,6.474,35.604z M39.768,51.31c-1.898-0.011-5.172-1.131-8.951-2.783l8.195-16.261
	c0,0,0.316-0.667,0.855-0.667c0.25,0,0.506,0.225,0.678,0.413c0.083,0.116,0.128,0.208,0.128,0.208l5.083,10.088l3.023,6.064
	C44.869,50.108,41.951,51.321,39.768,51.31z M67.536,38.769l2.74-5.424c0,0,1.202-3.162,3.469-1.291
	c2.562,2.121-0.536,3.504-0.536,3.504S70.929,36.885,67.536,38.769z"/>
<g>
	<g>
		<path fill="#012237" d="M92.74,31.156c-0.116,0.671-0.202,1.231-0.326,1.785c-0.546,2.419-1.114,4.845-1.651,7.273
			c-0.087,0.391-0.222,0.543-0.653,0.554c-1.999,0.029-1.999,0.042-2.527-1.872c-0.93-3.362-1.856-6.731-2.776-10.093
			c-0.091-0.335-0.11-0.688-0.166-1.078c0.825,0,1.559,0,2.385,0c0.797,3.3,1.588,6.614,2.366,9.834
			c0.685-2.877,1.395-5.862,2.113-8.89c0.031-0.125,0.062-0.253,0.093-0.38c0.06,0,0.123-0.001,0.181-0.002
			c0.691-0.002,1.331-0.033,1.959,0.028c0.179,0.019,0.426,0.33,0.479,0.542c0.67,2.841,1.313,5.686,1.964,8.528
			c0.024,0.098,0.062,0.2,0.233,0.294c0.084-0.505,0.142-1.011,0.263-1.503c0.634-2.678,1.283-5.345,1.962-8.014
			c0.041-0.189,0.342-0.43,0.545-0.454c0.016-0.001,0.053-0.007,0.053-0.007s1.105-0.014,1.759-0.014
			c-0.045,0.388-0.045,0.724-0.132,1.028c-1.051,3.824-2.126,7.639-3.17,11.474c-0.127,0.475-0.343,0.578-0.791,0.568
			c-1.904,0-1.907,0.021-2.352-1.85C93.955,36.378,93.372,33.841,92.74,31.156z"/>
		<path fill="#012237" d="M150.963,36.837c0.097-0.233,0.194-0.47,0.276-0.707c0.95-2.582,1.902-5.161,2.814-7.754
			c0.157-0.455,0.404-0.667,0.861-0.662c0.673,0.006,1.346,0.003,2.115,0.003c0.219,4.305,0.438,8.63,0.647,13
			c-0.785,0-1.505,0-2.312,0c-0.099-2.89-0.183-5.775-0.278-8.669c-0.059-0.011-0.127-0.024-0.183-0.043
			c-0.099,0.23-0.2,0.449-0.292,0.685c-0.831,2.188-1.667,4.375-2.473,6.572c-0.172,0.449-0.374,0.627-0.875,0.617
			c-1.446-0.026-1.457,0-1.971-1.386c-0.722-1.9-1.436-3.799-2.16-5.699c-0.097-0.265-0.222-0.521-0.325-0.779
			c-0.058,0.007-0.125,0.011-0.185,0.012c-0.094,2.889-0.192,5.77-0.287,8.689c-0.788,0-1.518,0-2.35,0
			c0.205-4.28,0.407-8.541,0.626-12.93c0.852-0.04,1.671-0.113,2.499-0.096c0.148,0.006,0.35,0.336,0.43,0.56
			c0.997,2.616,1.959,5.237,2.939,7.859c0.082,0.241,0.197,0.48,0.296,0.718C150.835,36.831,150.905,36.831,150.963,36.837z"/>
		<path fill="#012237" d="M131.286,40.755c0.096-0.41,0.126-0.711,0.224-1.002c1.211-3.776,2.445-7.54,3.642-11.317
			c0.159-0.537,0.44-0.734,0.959-0.727c0.355,0.009,0.713-0.021,1.078-0.024c1.22-0.021,1.22-0.021,1.591,1.117
			c1.181,3.634,2.359,7.267,3.525,10.908c0.098,0.306,0.143,0.633,0.225,1.044c-0.741,0-1.387,0.026-2.021-0.022
			c-0.165-0.014-0.375-0.24-0.446-0.415c-0.225-0.606-0.407-1.224-0.577-1.844c-0.1-0.383-0.258-0.56-0.684-0.548
			c-1.287,0.026-2.585-0.012-3.873,0.028c-0.205,0.008-0.506,0.238-0.584,0.436c-0.25,0.619-0.381,1.284-0.626,1.903
			c-0.079,0.197-0.368,0.414-0.573,0.44C132.588,40.795,132.009,40.755,131.286,40.755z M138.71,36.127
			c-0.61-2.164-1.21-4.263-1.817-6.393c-0.622,2.138-1.215,4.243-1.835,6.393C136.289,36.127,137.45,36.127,138.71,36.127z"/>
		<path fill="#012237" d="M108.021,27.813c0.771-0.053,1.503-0.106,2.327-0.164c0,3.784,0,7.47,0,11.229c1.869,0,3.653,0,5.521,0
			c-0.115,0.646-0.217,1.223-0.331,1.832c-2.502,0-4.987,0-7.517,0C108.021,36.446,108.021,32.179,108.021,27.813z"/>
		<path fill="#012237" d="M125.446,38.878c-0.127,0.67-0.228,1.227-0.332,1.826c-2.511,0-4.982,0-7.511,0c0-4.261,0-8.525,0-12.879
			c0.735-0.055,1.476-0.116,2.308-0.178c0,3.79,0,7.478,0,11.231C121.774,38.878,123.559,38.878,125.446,38.878z"/>
		<path fill="#012237" d="M129.545,40.72c-0.804,0-1.536,0-2.314,0c0-4.291,0-8.556,0-12.895c0.758-0.063,1.509-0.117,2.314-0.177
			C129.545,32.039,129.545,36.351,129.545,40.72z"/>
		<path fill="#012237" d="M103.014,27.822c0.771-0.062,1.504-0.117,2.3-0.174c0,4.377,0,8.691,0,13.049c-0.744,0-1.491,0-2.3,0
			C103.014,36.446,103.014,32.186,103.014,27.822z"/>
	</g>
	<g>
		<path fill="#012237" d="M123.588,58.723c-0.742-0.233-1.685,0.446-2.053-0.754c-1.495,0.942-3.083,1.006-4.72,0.752
			c-2.034-0.317-3.225-1.559-3.723-3.493c-0.458-1.78-0.502-3.6-0.114-5.4c0.565-2.641,2.208-4.156,4.912-4.326
			c1.387-0.081,2.797,0.151,4.192,0.238c0.643,0.038,0.996,0.335,0.99,1.02c-0.009,0.326,0.08,0.655,0.129,1.028
			c-1.03-0.185-2.018-0.415-3.018-0.503c-0.754-0.063-1.536-0.027-2.275,0.126c-1.293,0.269-2.057,1.17-2.382,2.417
			c-0.427,1.648-0.433,3.323,0.028,4.964c0.625,2.195,3.726,3.058,5.439,1.537c0.12-0.101,0.225-0.272,0.225-0.413
			c0.022-0.856,0.018-1.713,0.018-2.654c-0.797,0-1.528,0-2.286,0c-0.116-0.656-0.221-1.24-0.327-1.866c1.665,0,3.29,0,4.963,0
			C123.588,53.793,123.588,56.192,123.588,58.723z"/>
		<path fill="#012237" d="M136.485,58.681c-0.77,0-1.406,0.027-2.049-0.021c-0.158-0.016-0.372-0.248-0.438-0.428
			c-0.224-0.601-0.408-1.221-0.577-1.847c-0.102-0.381-0.28-0.543-0.7-0.534c-1.262,0.025-2.524,0.025-3.802,0
			c-0.404-0.007-0.587,0.14-0.699,0.53c-0.202,0.763-0.458,1.508-0.689,2.265c-0.749,0-1.458,0-2.277,0
			c0.063-0.332,0.083-0.629,0.168-0.906c1.23-3.825,2.469-7.639,3.693-11.462c0.135-0.443,0.361-0.603,0.792-0.64
			c2.375-0.228,2.375-0.239,3.093,1.988c1.094,3.345,2.175,6.683,3.245,10.026C136.346,57.958,136.389,58.279,136.485,58.681z
			 M130.824,47.648c-0.625,2.169-1.227,4.27-1.834,6.404c1.242,0,2.422,0,3.654,0C132.037,51.914,131.437,49.816,130.824,47.648z"/>
		<path fill="#012237" d="M103.053,58.644c0-4.348,0-8.641,0-12.983c2.671,0,5.319,0,8.03,0c-0.104,0.618-0.2,1.194-0.306,1.825
			c-1.79,0-3.529,0-5.314,0c0,1.233,0,2.408,0,3.654c1.366,0,2.699,0,4.094,0c0,0.602,0,1.141,0,1.757c-1.32,0-2.667,0-4.082,0
			c0,1.332,0,2.578,0,3.904c1.878,0,3.759,0,5.707,0c-0.116,0.666-0.22,1.243-0.321,1.843
			C108.251,58.644,105.692,58.644,103.053,58.644z"/>
		<path fill="#012237" d="M90.46,56.104c1.181-3.543,2.333-7.005,3.49-10.465c0.782,0,1.495,0,2.328,0
			c-0.053,0.316-0.053,0.618-0.15,0.89c-1.417,3.882-2.847,7.764-4.254,11.651c-0.142,0.377-0.319,0.505-0.72,0.506
			c-1.889,0.024-1.889,0.036-2.548-1.766c-1.22-3.346-2.449-6.689-3.657-10.039c-0.134-0.374-0.187-0.767-0.308-1.269
			c0.788,0,1.457-0.038,2.109,0.026c0.189,0.021,0.43,0.326,0.501,0.552c1.043,3.199,2.063,6.413,3.093,9.622
			C90.367,55.893,90.408,55.971,90.46,56.104z"/>
		<path fill="#012237" d="M145.233,47.59c-1.245-0.138-2.422-0.33-3.591-0.377c-1.178-0.05-1.807,0.462-1.958,1.374
			c-0.172,1.026,0.259,1.703,1.406,2.088c0.762,0.26,1.567,0.42,2.323,0.701c2.442,0.897,3.348,3.788,1.889,5.973
			c-0.685,1.037-1.784,1.391-2.905,1.427c-1.328,0.046-2.661-0.138-3.99-0.25c-0.529-0.044-0.862-0.297-0.855-0.916
			c0.012-0.424-0.102-0.849-0.158-1.292c0.928,0.244,1.787,0.553,2.687,0.69c0.665,0.103,1.376,0.051,2.05-0.06
			c0.873-0.141,1.259-0.668,1.349-1.535c0.093-0.959-0.197-1.634-0.997-1.948c-0.753-0.293-1.542-0.465-2.32-0.691
			c-2.29-0.658-3.215-2.039-2.875-4.317c0.237-1.686,1.394-2.791,3.374-2.947c1.217-0.095,2.468,0.103,3.701,0.178
			c0.476,0.027,0.713,0.265,0.717,0.772C145.091,46.858,145.181,47.26,145.233,47.59z"/>
		<path fill="#012237" d="M100.377,58.656c-0.789,0-1.524,0-2.309,0c0-4.288,0-8.551,0-12.905c0.754-0.06,1.501-0.123,2.309-0.178
			C100.377,49.957,100.377,54.268,100.377,58.656z"/>
	</g>
</g>
</svg>
