<?xml version="1.0" encoding="utf-8"?>
<!-- Generator: Adobe Illustrator 16.0.0, SVG Export Plug-In . SVG Version: 6.00 Build 0)  -->
<!DOCTYPE svg PUBLIC "-//W3C//DTD SVG 1.1//EN" "http://www.w3.org/Graphics/SVG/1.1/DTD/svg11.dtd">
<svg version="1.1" id="Camada_1" xmlns="http://www.w3.org/2000/svg" xmlns:xlink="http://www.w3.org/1999/xlink" x="0px" y="0px"
	 width="158.75px" height="78.25px" viewBox="0 0 158.75 78.25" enable-background="new 0 0 158.75 78.25" xml:space="preserve">
<path fill="#002C63" d="M26.006,50.352c-2.096,1.502-4.712,2.41-7.508,2.41c-7.259,0-13.093-5.868-13.093-13.093
	c0-7.23,5.834-13.13,13.093-13.13c2.796,0,5.379,0.908,7.508,2.374v5.17h-3.526v-2.935c-1.222-0.558-2.547-0.871-3.982-0.871
	c-5.201,0-9.391,4.223-9.391,9.393c0,5.166,4.19,9.394,9.391,9.394c2.269,0,4.332-0.84,5.937-2.131L26.006,50.352z"/>
<path fill="#002C63" d="M75.039,50.352c-2.09,1.502-4.71,2.41-7.506,2.41c-7.264,0-13.091-5.868-13.091-13.093
	c0-7.23,5.828-13.13,13.091-13.13c2.796,0,5.378,0.908,7.506,2.374v5.17h-3.526v-2.935c-1.223-0.558-2.549-0.871-3.98-0.871
	c-5.203,0-9.394,4.223-9.394,9.393c0,5.166,4.191,9.394,9.394,9.394c2.27,0,4.33-0.84,5.935-2.131L75.039,50.352z"/>
<path fill="#002C63" d="M103.714,49.338v3.459h-8.065v-3.459h2.025l-1.535-3.456H85.106l-1.539,3.456h2.024v3.459h-8.03v-3.459
	h2.024l8.381-19.447H85.49v-3.423h10.265v3.423H93.31l8.383,19.447H103.714z M94.64,42.426l-3.985-9.08l-4.052,9.08H94.64z"/>
<path fill="#002C63" d="M125.754,38.203v14.559h-3.667V51.47c-1.642,0.698-3.664,1.292-5.585,1.292
	c-7.333,0-13.27-5.934-13.27-13.268c0-7.264,5.937-12.885,13.27-12.885c2.688,0,5.271,0.594,7.225,2.374l-1.292,3.28
	c-1.64-1.361-3.629-2.023-5.934-2.023c-5.275,0-9.322,4.331-9.322,9.254c0,5.273,4.046,9.636,9.322,9.636
	c1.852,0,4.327-1.048,5.585-2.302v-5.31h-4.293v-3.315H125.754z"/>
<path fill="#002C63" d="M153.346,39.669c0,7.191-5.48,13.093-12.707,13.093c-6.847,0-12.395-5.901-12.395-13.093
	c0-7.159,5.548-13.025,12.395-13.025C147.865,26.644,153.346,32.51,153.346,39.669 M149.75,39.669c0-5.204-3.875-9.394-9.111-9.394
	c-4.926,0-8.8,4.19-8.8,9.394c0,5.273,3.874,9.494,8.8,9.494C145.875,49.163,149.75,44.942,149.75,39.669"/>
<path fill="#002C63" d="M51.013,26.392c-0.045,1.677-1.363,2.914-2.959,2.892c-1.631-0.026-2.927-1.365-2.89-2.944
	c0.041-1.677,1.369-2.915,2.959-2.891C49.752,23.473,51.048,24.81,51.013,26.392"/>
<path fill="#002C63" d="M48.198,30.206c-0.951,0.618-1.904,1.244-2.856,1.859v3.553c0.014-0.043,0.029-0.089,0.073-0.115
	c1.815-1.188,3.636-2.372,5.459-3.561v-1.741C50.874,30.201,47.256,30.206,48.198,30.206"/>
<path fill="#002C63" d="M50.874,43.969v-3.447c-1.8,1.171-3.596,2.341-5.4,3.512c-0.034,0.024-0.08,0.053-0.132,0.084
	c0,0-0.07,3.517-0.021,3.485C47.139,46.417,49.055,45.15,50.874,43.969"/>
<path fill="#731819" d="M46.219,49.063h4.655v-2.916C49.425,47.091,46.353,49.064,46.219,49.063"/>
<path fill="#731819" d="M50.874,37.817v-3.445c-1.8,1.171-3.596,2.343-5.4,3.514c-0.034,0.024-0.08,0.051-0.132,0.084
	c0,0-0.07,3.514-0.021,3.483C47.139,40.272,49.055,39.001,50.874,37.817"/>
<polygon fill="#002C63" points="49.815,30.206 52.294,30.206 52.294,26.609 43.88,26.609 43.88,30.206 46.327,30.206 "/>
<polygon fill="#731819" points="46.327,49.063 43.88,49.063 43.88,52.659 52.295,52.659 52.295,49.063 49.815,49.063 "/>
<polygon fill="#002C63" points="34.64,41.938 42.182,41.938 42.182,38.444 34.64,38.444 34.64,30.239 37.223,30.239 37.223,26.504 
	28.562,26.504 28.562,30.239 31.039,30.239 31.039,49.063 28.562,49.063 28.562,52.762 37.223,52.762 37.223,49.063 34.64,49.063 
	"/>
</svg>
