<?xml version="1.0" encoding="utf-8"?>
<!-- Generator: Adobe Illustrator 16.0.0, SVG Export Plug-In . SVG Version: 6.00 Build 0)  -->
<!DOCTYPE svg PUBLIC "-//W3C//DTD SVG 1.1//EN" "http://www.w3.org/Graphics/SVG/1.1/DTD/svg11.dtd">
<svg version="1.1" id="Camada_1" xmlns="http://www.w3.org/2000/svg" xmlns:xlink="http://www.w3.org/1999/xlink" x="0px" y="0px"
	 width="158.75px" height="78.25px" viewBox="0 0 158.75 78.25" enable-background="new 0 0 158.75 78.25" xml:space="preserve">
<polygon fill="#0D4DA4" points="60.838,39.786 60.838,29.363 72.111,29.363 "/>
<polygon fill="#0D4DA4" points="42.734,15.355 53.653,11.059 53.653,62.723 42.734,62.723 "/>
<polygon fill="#0D4DA4" points="74.746,62.723 62.381,62.723 53.653,49.855 61.285,42.823 "/>
<path fill="#0D4DA4" d="M82.656,45.854c1.222,8.348,8.985,14.166,17.369,12.948c0.088-0.031,0.178-0.031,0.305-0.06
	c-2.319,2.468-5.393,4.173-8.993,4.691c-8.376,1.22-16.147-4.599-17.366-12.949c-1.188-8.287,4.447-15.965,12.677-17.336
	C83.567,36.439,81.957,41.041,82.656,45.854z"/>
<path fill="#0D4DA4" d="M100.084,48.991C104.016,38.815,96,33.115,89.271,33.115c0,0,4.936,4.815,3.747,10.331l-7.132,5.544H100.084
	z"/>
<polygon fill="#0D4DA4" points="96.985,22.863 86.646,22.863 86.646,31.503 "/>
<circle fill="#0D4DA4" cx="28.451" cy="24.833" r="5.157"/>
<path fill="#0D4DA4" d="M18.906,43.985c5.064,2.155,9.267,3.933,9.267,6.411c0,2.425-1.832,3.987-5.28,3.987
	c-4.579,0-8.996-3.071-8.996-3.071l-4.095,8.081c0,0,5.711,4.203,13.791,4.203c7.165,0,14.492-5.28,14.492-13.577
	c0-4.633-3.124-8.781-8.458-11.421c-3.363-1.681-6.505-2.882-8.346-4.368c-3.894-2.734-6.442-7.255-6.442-12.375
	c0-0.675,0.049-1.338,0.135-1.989c-3.85,2.16-6.465,5.963-6.465,11.998C8.509,37.682,13.95,41.884,18.906,43.985z"/>
<polygon fill="#0D4DA4" points="105.728,39.718 115.077,32.344 115.077,62.73 105.728,62.73 "/>
<path fill="#0D4DA4" d="M132.666,43.146V39.29c0-3.835-3.069-6.945-6.875-6.945c-4.555,0-9.168,5.294-9.168,5.294
	s1.939,0.008,2.031,0.008c2.733,0,4.715,2.194,4.715,7.046V62.73h9.297V43.195C132.666,43.178,132.666,43.163,132.666,43.146z"/>
<path fill="#0D4DA4" d="M150.241,43.146V39.29c0-3.835-3.079-6.945-6.885-6.945c-4.555,0-9.173,5.294-9.173,5.294
	s1.947,0.008,2.038,0.008c2.734,0,4.723,2.194,4.723,7.046V62.73h9.297V43.195C150.241,43.178,150.241,43.163,150.241,43.146z"/>
</svg>
