<?xml version="1.0" encoding="utf-8"?>
<!-- Generator: Adobe Illustrator 16.0.0, SVG Export Plug-In . SVG Version: 6.00 Build 0)  -->
<!DOCTYPE svg PUBLIC "-//W3C//DTD SVG 1.1//EN" "http://www.w3.org/Graphics/SVG/1.1/DTD/svg11.dtd">
<svg version="1.1" id="Camada_1" xmlns="http://www.w3.org/2000/svg" xmlns:xlink="http://www.w3.org/1999/xlink" x="0px" y="0px"
	 width="158.75px" height="78.25px" viewBox="0 0 158.75 78.25" enable-background="new 0 0 158.75 78.25" xml:space="preserve">
<g>
	<g>
		<g>
			<path fill="#BFB04A" d="M36.415,42.023c-2.084,3.381-4.99,6.195-8.439,8.178c2.623,0.994,5.467,1.547,8.439,1.547
				s5.816-0.553,8.439-1.547C41.406,48.219,38.499,45.404,36.415,42.023z"/>
			<path fill="#BFB04A" d="M60.213,27.941c0-1.198-0.092-2.375-0.263-3.526c-0.013-0.085-0.025-0.079-0.025,0.01
				c0,1.786-1.448,3.233-3.233,3.233H16.137c-1.785,0-3.233-1.447-3.233-3.233c0-0.089-0.014-0.095-0.025-0.01
				c-0.173,1.151-0.263,2.328-0.263,3.526c0,1.021,0.072,2.023,0.195,3.011c3.408,2.111,7.39,3.384,11.656,3.535
				c-1.69,0.38-3.445,0.587-5.25,0.587c-1.971,0-3.883-0.242-5.714-0.693c0.504,1.795,1.21,3.505,2.097,5.102
				c0.889,0.102,1.792,0.158,2.708,0.158c2.755,0,5.399-0.475,7.86-1.335c-2.627,1.826-5.639,3.138-8.891,3.786
				c0.904,1.222,1.923,2.354,3.041,3.379c3.661-0.826,7.006-2.493,9.813-4.795c-2.191,2.626-4.938,4.773-8.061,6.26
				c1.106,0.836,2.289,1.574,3.534,2.211c4.024-2.127,7.364-5.369,9.608-9.32c0.442-0.779,0.848-1.583,1.201-2.414
				c0.354,0.831,0.76,1.635,1.201,2.414c2.244,3.951,5.584,7.193,9.609,9.32c1.244-0.637,2.428-1.375,3.532-2.211
				c-3.122-1.486-5.868-3.634-8.06-6.26c2.807,2.302,6.151,3.969,9.813,4.795c1.117-1.025,2.136-2.157,3.04-3.379
				c-3.252-0.648-6.264-1.96-8.891-3.786c2.461,0.86,5.105,1.335,7.86,1.335c0.917,0,1.819-0.057,2.708-0.158
				c0.887-1.597,1.594-3.307,2.097-5.102c-1.831,0.451-3.743,0.693-5.714,0.693c-1.805,0-3.56-0.207-5.25-0.587
				c4.268-0.151,8.247-1.424,11.656-3.535C60.143,29.965,60.213,28.963,60.213,27.941z"/>
			<circle fill="#BFB04A" cx="28.187" cy="23.324" r="1.682"/>
			<circle fill="#BFB04A" cx="44.623" cy="23.324" r="1.683"/>
			<path fill="#BFB04A" d="M43.989,10.739c-0.799,1.164-1.859,2.133-3.095,2.825c-1.329,0.742-2.857,1.168-4.486,1.168
				c-1.632,0-3.163-0.426-4.49-1.17c-1.235-0.693-2.295-1.662-3.095-2.825c-2.809,1.573-4.709,4.577-4.709,8.025
				c0,0.013,0.002,0.024,0.002,0.037c0.822-0.222,1.688-0.341,2.578-0.341c1.279,0,2.498,0.244,3.62,0.684
				c3.065,1.199,5.388,3.877,6.091,7.156c0.703-3.279,3.025-5.957,6.09-7.156c1.122-0.439,2.342-0.684,3.619-0.684
				c0.893,0,1.757,0.119,2.58,0.341c0-0.013,0-0.024,0-0.037C48.694,15.316,46.796,12.314,43.989,10.739z"/>
		</g>
		<g>
			<polygon fill="#BFB04A" points="27,68.016 23.87,64.885 20.739,68.016 20.739,58.443 21.325,58.443 21.325,66.604 23.87,64.057 
				26.415,66.604 26.415,58.443 27,58.443 			"/>
		</g>
		<g>
			<path fill="#BFB04A" d="M58.553,58.443L58.553,58.443H26.708v5.842h35.025l0.008-3.363
				C61.377,59.498,60.089,58.443,58.553,58.443z"/>
			<path fill="#BFB04A" d="M21.032,58.443h-3.489l0,0c-1.538,0-2.824,1.055-3.188,2.479l-0.004,3.363h6.682V58.443z"/>
		</g>
	</g>
	<g>
		<g>
			<path fill="#BFB04A" d="M81.155,28.461c0,0.191,0.053,0.33,0.053,0.439s-0.08,0.164-0.219,0.219
				c-1.113,0.564-2.278,0.88-4.024,0.88c-1.429,0-3.036-0.452-3.983-1.565c-0.838-0.949-1.266-2.117-1.266-3.779
				c0-1.25,0.592-2.582,1.596-3.447c1.002-0.879,2.24-1.347,3.888-1.347c1.387,0,2.417,0.384,2.87,0.673
				c0.164,0.098,0.262,0.068,0.344-0.041l0.137-0.219c0.068-0.098,0.096-0.139,0.178-0.139c0.15,0,0.193,0.098,0.193,0.248
				l0.207,2.83c0.012,0.164,0,0.232-0.057,0.247l-0.385,0.082c-0.082,0.013-0.123-0.014-0.164-0.138
				c-0.219-0.672-0.66-1.552-1.249-2.088c-0.537-0.508-1.236-0.852-2.172-0.852c-0.74,0-1.429,0.234-2.073,1.031
				c-0.631,0.754-1.1,1.895-1.1,3.132c0,1.621,0.455,3.036,1.195,3.778c0.646,0.645,1.167,0.934,2.103,0.934
				c0.713,0,1.1-0.056,1.553-0.275c0.287-0.137,0.314-0.576,0.314-1.291v-0.988c0-0.496-0.137-0.633-0.48-0.633h-0.576
				c-0.082,0-0.098-0.055-0.098-0.123v-0.344c0-0.056,0.016-0.096,0.098-0.096c0.123,0,0.797,0.04,2.032,0.04
				c1.262,0,1.771-0.04,1.881-0.04c0.111,0,0.123,0.04,0.123,0.109v0.343c0,0.083-0.012,0.11-0.096,0.11h-0.396
				c-0.25,0-0.426,0.097-0.426,0.494V28.461z"/>
			<path fill="#BFB04A" d="M83.795,24.037c0-0.33-0.041-2.803-0.053-2.982c-0.029-0.328-0.164-0.467-0.455-0.467h-0.658
				c-0.068,0-0.111-0.027-0.111-0.082v-0.398c0-0.055,0.043-0.082,0.096-0.082c0.166,0,0.867,0.041,2.213,0.041
				c1.402,0,1.84-0.041,2.033-0.041c0.068,0,0.096,0.041,0.096,0.123v0.344c0,0.068-0.041,0.096-0.109,0.096H86.45
				c-0.346,0-0.553,0.111-0.553,0.357c0,0.138-0.041,3.174-0.041,3.339v1.058c0,0.137,0.041,3.311,0.041,3.434
				c0,0.426,0.207,0.495,0.471,0.495h0.561c0.068,0,0.109,0.028,0.109,0.097v0.385c0,0.014-0.008,0.035-0.008,0.035l-2.135,0.006
				l-2.279-0.002c0,0-0.016-0.038-0.016-0.066v-0.371c0-0.055,0.043-0.083,0.111-0.083h0.398c0.275,0,0.563-0.042,0.619-0.37
				c0.025-0.207,0.066-3.174,0.066-3.902V24.037z"/>
			<path fill="#BFB04A" d="M91.532,25.493c0,0.233,0,3.2,0.041,3.751h0.781c0.646,0,1.264,0,2.008-0.07
				c0.74-0.067,1.674-1.717,1.881-2.225c0.041-0.082,0.082-0.124,0.164-0.082l0.275,0.109c0.041,0.027,0.041,0.041,0.027,0.123
				c-0.039,0.094-0.662,2.689-0.662,2.689h-7.723c0,0-0.01-0.044-0.01-0.078v-0.344c0-0.068,0.016-0.097,0.098-0.097h0.426
				c0.508,0,0.592-0.192,0.592-0.343c0-0.262,0.039-3.682,0.039-4.52v-0.771c0-0.878-0.027-2.335-0.039-2.555
				c-0.029-0.356-0.098-0.495-0.412-0.495h-0.51c-0.084,0-0.096-0.068-0.096-0.137v-0.33c0-0.068,0.012-0.096,0.096-0.096
				c0.15,0,0.646,0.041,1.895,0.041c1.607,0,2.184-0.041,2.309-0.041c0.109,0,0.123,0.041,0.123,0.137v0.316
				c0,0.068-0.027,0.109-0.137,0.109h-0.646c-0.426,0-0.479,0.139-0.479,0.51c0,0.178-0.041,2.252-0.041,3.213V25.493z"/>
			<path fill="#BFB04A" d="M102.768,24.559v-0.027c1.457-0.48,2.006-1.36,2.006-2.267c0-0.811-0.275-1.442-1.059-1.868
				c-0.48-0.275-1.357-0.371-2.35-0.371c-0.932,0-1.758,0.041-2.197,0.041c-1.305,0-1.965-0.041-2.145-0.041
				c-0.094,0-0.107,0.041-0.107,0.123v0.316c0,0.109,0,0.123,0.094,0.123h0.443c0.451,0,0.672,0.029,0.713,0.824
				c0.014,0.221,0.041,1.896,0.041,2.405v1.62c0,1.127-0.027,2.94-0.07,3.256c-0.055,0.413-0.121,0.577-0.533,0.577h-0.482
				c-0.123,0-0.137,0.028-0.137,0.11v0.303c0,0.048,0.016,0.106,0.016,0.106s5.645,0.001,5.746-0.006
				c0.717-0.056,1.203-0.241,1.545-0.417c0.66-0.33,1.074-1.348,1.074-2.088C105.366,25.822,104.471,24.998,102.768,24.559z
				 M100.211,23.336c0-1.141,0.016-2.336,0.043-2.609c0.014-0.221,0.316-0.234,0.604-0.234c0.15,0,0.824,0.125,1.293,0.494
				c0.396,0.316,0.561,0.866,0.561,1.389c0,0.604-0.203,1.222-0.656,1.621c-0.4,0.357-1.279,0.439-1.844,0.385V23.336z
				 M101.243,29.408c-0.729,0-1.031-0.535-1.031-1.841v-2.72c0.344,0,1.004-0.028,1.689,0.234c0.744,0.287,1.238,1.016,1.238,2.129
				C103.139,28.928,102.219,29.408,101.243,29.408z"/>
			<path fill="#BFB04A" d="M108.928,24.531c0.631,0,1.236-0.041,1.4-0.082c0.234-0.055,0.426-0.179,0.631-0.426
				c0.152-0.206,0.318-0.591,0.318-0.853c0-0.096,0.041-0.124,0.109-0.124l0.369,0.041c0.07,0.016,0.125,0.028,0.109,0.111
				c-0.039,0.233-0.039,0.947-0.039,1.429c0,0.618,0.055,1.278,0.082,1.565c0.012,0.082-0.043,0.096-0.109,0.111l-0.33,0.067
				c-0.055,0.015-0.082-0.014-0.109-0.109c-0.057-0.221-0.193-0.536-0.275-0.7c-0.152-0.262-0.48-0.44-0.756-0.48
				c-0.371-0.057-0.797-0.084-1.4-0.084v0.824c0,0.742,0.068,2.075,0.068,2.322c0,0.715,0.152,0.962,0.33,1.043
				c0.205,0.083,0.465,0.125,1.154,0.125c0.232,0,0.811-0.014,1.098-0.042c0.275-0.026,0.688-0.164,1.043-0.453
				c0.359-0.288,1.127-1.14,1.402-1.47c0.057-0.055,0.096-0.068,0.139-0.041l0.232,0.137c0.055,0.028,0.068,0.068,0.055,0.109
				l-0.617,2.075c-0.023,0.07-0.125,0.162-0.125,0.162h-8.016c0,0-0.02-0.059-0.02-0.106v-0.289c0-0.082,0.041-0.124,0.137-0.124
				h0.412c0.633,0,0.688-0.097,0.688-0.577v-4.602c0-1.14-0.027-2.83-0.041-2.967c-0.057-0.439-0.193-0.537-0.563-0.537h-0.539
				c-0.053,0-0.068-0.041-0.068-0.137v-0.33c0-0.041,0.016-0.096,0.098-0.096c0.303,0,0.783,0.041,2.033,0.041l4.82-0.014
				c0.223,0,0.482-0.027,0.551-0.027s0.098,0.027,0.111,0.068c0.055,0.193,0.508,2.074,0.563,2.213
				c0.027,0.068,0.027,0.096-0.041,0.137l-0.219,0.11c-0.057,0.026-0.125,0.014-0.166-0.055c-0.068-0.111-1.307-1.347-1.621-1.54
				c-0.289-0.178-0.674-0.357-1.043-0.371l-1.814-0.055L108.928,24.531z"/>
			<path fill="#BFB04A" d="M124.602,29.271c-0.316,0-0.838-0.11-1.004-0.288c-0.273-0.316-1.016-1.359-1.098-1.484
				c-0.109-0.164-0.865-1.387-1.045-1.607c-0.26-0.328-0.48-0.59-0.906-0.728v-0.096c1.209-0.11,2.514-0.894,2.514-2.639
				c0-0.508-0.287-1.044-0.781-1.497c-0.564-0.521-1.361-0.906-2.432-0.906c-0.564,0-1.771,0.041-2.543,0.041
				c-1.498,0-1.922-0.041-2.047-0.041c-0.068,0-0.08,0.027-0.08,0.096v0.371c0,0.055,0.012,0.096,0.08,0.096h0.549
				c0.193,0,0.373,0.234,0.387,0.688c0.014,0.371,0.014,1.25,0.014,2.267v1.333c0,1.305,0,2.597-0.027,3.956
				c0,0.343-0.248,0.439-0.549,0.439h-0.414c-0.068,0-0.068,0.042-0.068,0.11v0.315c0,0.097,0,0.138,0.109,0.138
				c0.152,0,0.467-0.041,1.922-0.041c1.443,0,1.787,0.041,1.803,0.041c0.205,0,0.219-0.027,0.219-0.123v-0.33
				c0-0.068-0.014-0.11-0.109-0.11h-0.564c-0.205,0-0.314-0.247-0.342-0.535c-0.029-0.179-0.068-1.718-0.068-2.528v-0.7h0.465
				c0.66,0,1.225,1.017,1.689,1.95c0.234,0.468,1.086,2.062,1.496,2.377c0.4-0.014,0.908-0.041,1.307-0.041
				c1.059,0,1.416,0.041,1.525,0.041c0.098,0,0.111-0.041,0.111-0.123v-0.33C124.713,29.326,124.7,29.271,124.602,29.271z
				 M118.682,25.039c-0.125,0-0.289,0-0.551-0.014l0.068-4.012c0.027-0.164,0.068-0.314,0.152-0.37
				c0.109-0.097,0.287-0.124,0.521-0.124c0.412,0,1.031,0.166,1.525,0.605c0.303,0.303,0.521,0.906,0.521,1.538
				C120.92,23.309,120.495,25.039,118.682,25.039z"/>
			<path fill="#BFB04A" d="M128.059,20.699h-0.479c-0.441,0-1.266,0.014-1.844,0.219c-0.301,0.221-0.904,1.058-1.25,1.553
				c-0.041,0.068-0.082,0.109-0.137,0.097l-0.303-0.11c-0.055-0.014-0.068-0.082-0.055-0.124c0.109-0.417,0.379-1.485,0.539-2.146
				c0.01-0.043,0.029-0.121,0.029-0.121h4.541h4.664c0,0,0.018,0.115,0.025,0.178c0.1,0.65,0.25,1.635,0.328,2.144
				c0.012,0.056-0.016,0.111-0.057,0.124l-0.289,0.11c-0.057,0.013-0.082-0.027-0.139-0.123c-0.301-0.495-0.838-1.21-1.18-1.54
				c-0.342-0.205-1.566-0.26-1.883-0.26h-0.451v3.777c0,0.191,0,4.039,0.012,4.244c0.027,0.344,0.139,0.55,0.469,0.55h0.617
				c0.123,0,0.137,0.042,0.137,0.138v0.316c0,0.068-0.014,0.109-0.137,0.109c-0.137,0-0.576-0.041-2.102-0.041
				c-1.455,0-2.033,0.041-2.227,0.041c-0.109,0-0.123-0.055-0.123-0.165v-0.261c0-0.096,0.014-0.138,0.096-0.138h0.701
				c0.275,0,0.439-0.164,0.467-0.411c0.027-0.289,0.027-4.506,0.027-4.768V20.699z"/>
			<path fill="#BFB04A" d="M143.432,20.945c-1.154-0.906-2.211-1.085-3.352-1.085c-1.236,0-2.789,0.274-3.998,1.745
				c-1.059,1.277-1.277,2.582-1.277,3.42c0,2.006,1.043,3.49,2.02,4.081c1.084,0.673,2.279,0.893,3.229,0.893
				c2.168,0,3.338-0.825,4.23-1.938c0.715-0.962,1.029-2.005,1.029-3.008C145.313,23.157,144.475,21.77,143.432,20.945z
				 M140.163,29.354c-1.141,0-3.16-1.25-3.16-4.768c0-1.126,0.412-2.568,1.221-3.338c0.84-0.811,1.527-0.742,1.803-0.742
				c1.154,0,3.133,1.648,3.133,4.657C143.159,26.289,142.704,29.354,140.163,29.354z"/>
		</g>
		<g>
			<path fill="#BFB04A" d="M73.213,43.563c-1.016-0.907-1.498-2.486-1.498-3.668c0-1.415,0.455-2.692,1.416-3.723
				c0.783-0.838,1.924-1.484,3.628-1.484c1.248,0,2.279,0.316,2.76,0.578c0.192,0.096,0.261,0.082,0.288-0.015l0.109-0.343
				c0.029-0.082,0.055-0.082,0.262-0.082s0.234,0.026,0.234,0.219c0,0.262,0.248,2.597,0.314,3.009c0.016,0.097,0,0.165-0.066,0.179
				l-0.303,0.082c-0.07,0.028-0.125-0.027-0.166-0.15c-0.15-0.55-0.523-1.25-1.099-1.842c-0.59-0.576-1.318-1.029-2.363-1.029
				c-2.003,0-2.856,1.826-2.841,3.859c0,0.865,0.246,2.555,1.221,3.586c0.895,0.92,1.675,1.031,2.142,1.031
				c1.568,0,2.735-0.715,3.241-1.47c0.07-0.111,0.139-0.167,0.209-0.111l0.232,0.206c0.041,0.027,0.055,0.084,0,0.165
				c-0.797,1.155-2.13,2.267-4.065,2.267C75.042,44.826,74.079,44.332,73.213,43.563z"/>
			<path fill="#BFB04A" d="M91.223,44.1h-0.467c-0.205,0-0.563-0.166-0.797-0.621c-0.191-0.369-1.086-2.924-1.402-3.996
				c-0.26-0.879-1.33-3.957-1.592-4.822c-0.041-0.15-0.07-0.232-0.152-0.232c-0.066,0-0.109,0.055-0.178,0.123
				c-0.207,0.233-1.098,0.59-1.539,0.686c-0.109,0.029-0.137,0.084-0.137,0.125c0,0.055,0.055,0.123,0.096,0.178
				c0.096,0.152,0.029,0.33-0.014,0.468c-0.123,0.37-1.236,3.325-1.348,3.599c-0.453,1.211-1.43,3.601-1.621,3.889
				c-0.273,0.412-0.602,0.605-0.934,0.605h-0.355c-0.082,0-0.098,0.039-0.098,0.123v0.26c0,0.049,0.018,0.127,0.018,0.127
				l3.553,0.008c0,0,0.016-0.059,0.016-0.105v-0.303c0-0.057-0.016-0.109-0.15-0.109h-0.482c-0.41,0-0.535-0.33-0.535-0.635
				c0-0.438,0.674-2.32,0.783-2.608h3.008c0.166,0.495,0.701,2.253,0.826,2.747c0.082,0.357-0.041,0.496-0.412,0.496h-0.385
				c-0.068,0-0.082,0.053-0.082,0.123v0.26c0,0.049,0.023,0.127,0.023,0.127l4.424,0.008c0,0,0.029-0.086,0.029-0.135v-0.26
				C91.319,44.152,91.305,44.1,91.223,44.1z M84.067,40.307c0.109-0.344,1.291-3.586,1.357-3.764c0.043-0.124,0.084-0.18,0.166-0.18
				c0.068,0,0.098,0.097,0.15,0.304c0.098,0.343,0.908,3.228,1.033,3.64H84.067z"/>
			<path fill="#BFB04A" d="M94.891,40.32c0,0.234,0,3.201,0.041,3.75h0.783c0.646,0,1.264,0,2.006-0.066
				c0.742-0.07,1.676-1.719,1.883-2.227c0.039-0.083,0.082-0.125,0.164-0.083l0.275,0.11c0.039,0.027,0.039,0.041,0.027,0.123
				c-0.041,0.092-0.555,2.209-0.664,2.689c-0.004,0.016-7.723,0-7.723,0s-0.008-0.045-0.008-0.078v-0.344
				c0-0.068,0.014-0.096,0.096-0.096H92.2c0.506,0,0.59-0.193,0.59-0.344c0-0.262,0.041-3.684,0.041-4.52v-0.771
				c0-0.88-0.027-2.335-0.041-2.556c-0.027-0.356-0.096-0.494-0.412-0.494H91.87c-0.084,0-0.098-0.068-0.098-0.137v-0.33
				c0-0.068,0.014-0.097,0.098-0.097c0.15,0,0.645,0.042,1.896,0.042c1.605,0,2.182-0.042,2.309-0.042
				c0.109,0,0.123,0.042,0.123,0.138v0.316c0,0.068-0.029,0.109-0.141,0.109h-0.645c-0.424,0-0.48,0.138-0.48,0.51
				c0,0.177-0.041,2.252-0.041,3.213V40.32z"/>
			<path fill="#BFB04A" d="M109.178,36.103c-1.305-1.085-2.789-1.25-4.658-1.25c-0.316,0-1.688,0.042-2.047,0.042
				c-1.373,0-1.979-0.042-2.156-0.042c-0.055,0-0.096,0.015-0.096,0.069v0.398c0,0.082,0.041,0.096,0.109,0.096h0.688
				c0.232,0,0.412,0.055,0.455,0.385c0.025,0.206,0.068,2.157,0.068,2.514v1.031c0,1.044-0.057,4.133-0.098,4.424
				c-0.027,0.221-0.178,0.33-0.439,0.33h-0.715c-0.068,0-0.109,0.027-0.109,0.08v0.359c0,0.033,0.01,0.078,0.01,0.078
				s5.555,0,5.814-0.004c1.068-0.021,2.445-0.424,3.352-1.407c0.908-0.989,1.361-2.034,1.361-3.614
				C110.717,37.998,110.086,36.859,109.178,36.103z M107.53,42.752c-0.713,0.949-1.771,1.348-2.57,1.348
				c-0.467,0-0.932-0.082-1.098-0.33c-0.178-0.262-0.234-0.481-0.234-0.756c-0.014-0.854-0.027-3.188-0.027-3.367v-0.975
				c0-0.22,0-2.02,0.014-2.596c0.014-0.275,0.07-0.495,0.275-0.592c0.18-0.096,0.385-0.109,0.768-0.109
				c0.799,0,2.008,0.439,2.734,1.25c0.646,0.715,1.113,1.869,1.113,2.994C108.504,40.898,108.079,42.023,107.53,42.752z"/>
			<path fill="#BFB04A" d="M113.973,39.359c0.633,0,1.236-0.041,1.402-0.082c0.23-0.055,0.424-0.18,0.631-0.427
				c0.152-0.206,0.314-0.59,0.314-0.853c0-0.095,0.041-0.123,0.111-0.123l0.371,0.042c0.068,0.014,0.123,0.026,0.109,0.11
				c-0.041,0.233-0.041,0.947-0.041,1.428c0,0.617,0.055,1.277,0.084,1.566c0.012,0.082-0.043,0.096-0.111,0.109l-0.332,0.07
				c-0.053,0.012-0.08-0.016-0.109-0.111c-0.053-0.22-0.191-0.535-0.273-0.7c-0.15-0.263-0.48-0.44-0.754-0.481
				c-0.373-0.055-0.797-0.082-1.402-0.082v0.824c0,0.742,0.068,2.074,0.068,2.321c0,0.716,0.15,0.962,0.33,1.046
				c0.207,0.082,0.467,0.121,1.154,0.121c0.232,0,0.809-0.012,1.098-0.039c0.275-0.029,0.688-0.166,1.045-0.455
				s1.127-1.139,1.402-1.47c0.053-0.054,0.096-0.068,0.137-0.042l0.232,0.139c0.055,0.028,0.07,0.068,0.055,0.11l-0.615,2.073
				c-0.025,0.07-0.064,0.127-0.125,0.164c-0.047,0.027-8.02,0-8.02,0s-0.018-0.061-0.018-0.107v-0.289
				c0-0.084,0.041-0.123,0.137-0.123h0.412c0.633,0,0.688-0.096,0.688-0.578V38.92c0-1.142-0.027-2.83-0.039-2.968
				c-0.059-0.44-0.193-0.536-0.566-0.536h-0.535c-0.055,0-0.068-0.041-0.068-0.137v-0.33c0-0.041,0.014-0.097,0.096-0.097
				c0.303,0,0.783,0.042,2.033,0.042l4.822-0.014c0.219,0,0.48-0.028,0.549-0.028c0.07,0,0.098,0.028,0.109,0.069
				c0.057,0.191,0.51,2.074,0.564,2.212c0.027,0.068,0.027,0.095-0.039,0.137l-0.223,0.11c-0.055,0.027-0.123,0.014-0.164-0.056
				c-0.068-0.109-1.305-1.346-1.621-1.538c-0.287-0.179-0.674-0.357-1.043-0.371l-1.814-0.055L113.973,39.359z"/>
			<path fill="#BFB04A" d="M121.377,38.863c0-0.328-0.043-2.802-0.055-2.98c-0.029-0.329-0.166-0.467-0.455-0.467h-0.658
				c-0.068,0-0.109-0.027-0.109-0.082v-0.398c0-0.055,0.041-0.083,0.096-0.083c0.166,0,0.865,0.042,2.213,0.042
				c1.4,0,1.84-0.042,2.033-0.042c0.068,0,0.096,0.042,0.096,0.124v0.344c0,0.068-0.043,0.096-0.111,0.096h-0.396
				c-0.344,0-0.549,0.109-0.549,0.357c0,0.137-0.043,3.173-0.043,3.338v1.059c0,0.137,0.043,3.309,0.043,3.434
				c0,0.426,0.205,0.496,0.467,0.496h0.563c0.066,0,0.109,0.027,0.109,0.096v0.383c0,0.014-0.008,0.037-0.008,0.037l-4.416,0.002
				c0,0-0.014-0.039-0.014-0.064V44.18c0-0.053,0.041-0.08,0.109-0.08h0.398c0.273,0,0.564-0.043,0.617-0.373
				c0.027-0.205,0.07-3.172,0.07-3.9V38.863z"/>
			<path fill="#BFB04A" d="M135.487,44.1c-0.316,0-0.84-0.109-1.004-0.291c-0.273-0.314-1.016-1.359-1.098-1.482
				c-0.111-0.166-0.869-1.389-1.047-1.607c-0.26-0.329-0.479-0.592-0.906-0.729v-0.096c1.209-0.109,2.516-0.893,2.516-2.638
				c0-0.508-0.289-1.044-0.783-1.497c-0.564-0.523-1.361-0.907-2.432-0.907c-0.564,0-1.771,0.042-2.543,0.042
				c-1.496,0-1.924-0.042-2.045-0.042c-0.068,0-0.084,0.028-0.084,0.097v0.371c0,0.055,0.016,0.096,0.084,0.096h0.549
				c0.191,0,0.369,0.233,0.385,0.687c0.014,0.371,0.014,1.251,0.014,2.268v1.333c0,1.305,0,2.597-0.029,3.955
				c0,0.346-0.246,0.441-0.547,0.441h-0.412c-0.068,0-0.068,0.039-0.068,0.109v0.314c0,0.041,0.006,0.092,0.006,0.092l4.031,0.002
				c0,0,0.014-0.045,0.014-0.078v-0.33c0-0.07-0.014-0.109-0.109-0.109h-0.563c-0.207,0-0.316-0.248-0.344-0.537
				c-0.027-0.178-0.068-1.717-0.068-2.527v-0.701h0.465c0.66,0,1.225,1.018,1.693,1.951c0.221,0.448,1.443,2.334,1.443,2.334h2.98
				c0,0,0.012-0.049,0.012-0.08v-0.33C135.596,44.152,135.581,44.1,135.487,44.1z M129.565,39.867c-0.123,0-0.289,0-0.551-0.014
				l0.07-4.012c0.027-0.164,0.068-0.316,0.15-0.371c0.111-0.096,0.289-0.123,0.523-0.123c0.41,0,1.029,0.164,1.523,0.604
				c0.301,0.302,0.521,0.907,0.521,1.538C131.803,38.137,131.379,39.867,129.565,39.867z"/>
			<path fill="#BFB04A" d="M145.364,44.1h-0.469c-0.205,0-0.561-0.166-0.797-0.621c-0.191-0.369-1.084-2.924-1.4-3.996
				c-0.26-0.879-1.332-3.957-1.594-4.822c-0.041-0.15-0.07-0.232-0.15-0.232c-0.07,0-0.109,0.055-0.18,0.123
				c-0.205,0.233-1.098,0.59-1.539,0.686c-0.109,0.029-0.137,0.084-0.137,0.125c0,0.055,0.055,0.123,0.096,0.178
				c0.096,0.152,0.029,0.33-0.014,0.468c-0.123,0.37-1.236,3.325-1.346,3.599c-0.453,1.211-1.43,3.601-1.621,3.889
				c-0.273,0.412-0.605,0.605-0.936,0.605h-0.355c-0.082,0-0.098,0.039-0.098,0.123v0.26c0,0.049,0.02,0.127,0.02,0.127l3.547,0.018
				c0,0,0.02-0.063,0.02-0.115v-0.303c0-0.057-0.014-0.109-0.15-0.109h-0.48c-0.412,0-0.537-0.33-0.537-0.635
				c0-0.438,0.674-2.32,0.785-2.608h3.006c0.168,0.495,0.701,2.253,0.826,2.747c0.082,0.357-0.041,0.496-0.414,0.496h-0.383
				c-0.068,0-0.082,0.053-0.082,0.123v0.26c0,0.049,0.023,0.127,0.023,0.127s4.408,0.035,4.426,0.008
				c0.025-0.035,0.029-0.086,0.029-0.135v-0.26C145.459,44.152,145.444,44.1,145.364,44.1z M138.206,40.307
				c0.111-0.344,1.289-3.586,1.359-3.764c0.041-0.124,0.082-0.18,0.166-0.18c0.066,0,0.094,0.097,0.15,0.304
				c0.096,0.343,0.906,3.228,1.031,3.64H138.206z"/>
		</g>
		<g>
			<path fill="#BFB04A" d="M89.03,49.727h-0.762l-2.373,5.334h0.771l0.559-1.295h2.811l0.564,1.295h0.791L89.03,49.727z
				 M87.512,53.102l1.115-2.59l1.127,2.59H87.512z"/>
			<path fill="#BFB04A" d="M96.735,51.029c-0.238-0.406-0.568-0.725-0.986-0.957s-0.887-0.346-1.406-0.346h-2.174v5.334h2.15
				c0.523,0,0.996-0.113,1.418-0.346s0.754-0.551,0.994-0.957c0.242-0.406,0.361-0.861,0.361-1.361
				C97.092,51.891,96.975,51.436,96.735,51.029z M96.083,53.424c-0.176,0.303-0.412,0.543-0.715,0.715
				c-0.303,0.174-0.639,0.26-1.01,0.26h-1.457v-4.01h1.426c0.377,0,0.717,0.09,1.025,0.264c0.309,0.176,0.549,0.414,0.727,0.721
				c0.18,0.305,0.268,0.646,0.268,1.029C96.346,52.775,96.26,53.117,96.083,53.424z"/>
			<polygon fill="#BFB04A" points="97.346,49.727 98.129,49.727 99.891,54.246 101.651,49.727 102.42,49.727 100.256,55.061 
				99.495,55.061 			"/>
			<path fill="#BFB04A" d="M107.879,51.02c-0.25-0.416-0.59-0.74-1.018-0.98c-0.43-0.238-0.9-0.359-1.416-0.359
				c-0.518,0-0.99,0.121-1.416,0.359c-0.428,0.24-0.766,0.564-1.014,0.98c-0.248,0.412-0.373,0.869-0.373,1.367
				c0,0.496,0.125,0.955,0.373,1.375c0.248,0.418,0.588,0.75,1.016,0.99c0.432,0.242,0.902,0.363,1.414,0.363
				c0.516,0,0.986-0.121,1.416-0.363c0.428-0.24,0.768-0.572,1.018-0.99c0.248-0.42,0.371-0.879,0.371-1.375
				C108.25,51.889,108.127,51.432,107.879,51.02z M107.225,53.424c-0.184,0.314-0.434,0.564-0.744,0.75
				c-0.313,0.184-0.656,0.279-1.025,0.279c-0.371,0-0.717-0.096-1.033-0.279c-0.318-0.186-0.57-0.436-0.76-0.75
				c-0.188-0.316-0.281-0.66-0.281-1.037s0.094-0.721,0.281-1.035c0.189-0.311,0.441-0.559,0.76-0.74
				c0.316-0.184,0.662-0.275,1.033-0.275c0.369,0,0.713,0.092,1.025,0.275c0.311,0.182,0.561,0.43,0.744,0.74
				c0.188,0.314,0.281,0.658,0.281,1.035S107.413,53.107,107.225,53.424z"/>
			<path fill="#BFB04A" d="M112.825,52.455h0.648v1.957c-0.27,0.215-0.584,0.387-0.945,0.514c-0.361,0.125-0.719,0.189-1.076,0.189
				c-0.512,0-0.982-0.121-1.408-0.363c-0.428-0.24-0.762-0.572-1.01-0.99c-0.246-0.42-0.369-0.879-0.369-1.375
				c0-0.498,0.125-0.955,0.373-1.367c0.248-0.416,0.59-0.74,1.021-0.98c0.432-0.238,0.908-0.359,1.434-0.359
				c0.369,0,0.73,0.066,1.084,0.199c0.354,0.131,0.66,0.313,0.918,0.541l-0.418,0.533c-0.215-0.199-0.459-0.352-0.734-0.463
				c-0.277-0.107-0.563-0.162-0.85-0.162c-0.383,0-0.732,0.092-1.053,0.273c-0.32,0.186-0.574,0.434-0.76,0.748
				s-0.277,0.66-0.277,1.037s0.096,0.723,0.281,1.039c0.188,0.318,0.443,0.57,0.764,0.754c0.32,0.188,0.67,0.279,1.051,0.279
				c0.225,0,0.451-0.037,0.682-0.109c0.232-0.076,0.447-0.178,0.645-0.309V52.455z"/>
			<path fill="#BFB04A" d="M117.252,49.727h-0.762l-2.371,5.334h0.77l0.557-1.295h2.814l0.563,1.295h0.795L117.252,49.727z
				 M115.735,53.102l1.115-2.59l1.129,2.59H115.735z"/>
			<path fill="#BFB04A" d="M124.959,51.029c-0.238-0.406-0.568-0.725-0.988-0.957c-0.418-0.232-0.889-0.346-1.404-0.346h-2.172
				v5.334h2.146c0.523,0,0.996-0.113,1.418-0.346c0.424-0.232,0.754-0.551,0.996-0.957c0.24-0.406,0.361-0.861,0.361-1.361
				C125.317,51.891,125.198,51.436,124.959,51.029z M124.307,53.424c-0.176,0.303-0.414,0.543-0.717,0.715
				c-0.301,0.174-0.639,0.26-1.01,0.26h-1.455v-4.01h1.426c0.375,0,0.719,0.09,1.025,0.264c0.305,0.176,0.549,0.414,0.729,0.721
				c0.176,0.305,0.266,0.646,0.266,1.029C124.571,52.775,124.483,53.117,124.307,53.424z"/>
			<path fill="#BFB04A" d="M130.956,51.02c-0.248-0.416-0.586-0.74-1.016-0.98c-0.43-0.238-0.9-0.359-1.414-0.359
				c-0.518,0-0.992,0.121-1.418,0.359c-0.426,0.24-0.766,0.564-1.014,0.98c-0.248,0.412-0.373,0.869-0.373,1.367
				c0,0.496,0.125,0.955,0.373,1.375c0.248,0.418,0.588,0.75,1.018,0.99c0.43,0.242,0.9,0.363,1.414,0.363s0.984-0.121,1.414-0.363
				c0.43-0.24,0.768-0.572,1.016-0.99c0.25-0.42,0.375-0.879,0.375-1.375C131.331,51.889,131.206,51.432,130.956,51.02z
				 M130.305,53.424c-0.184,0.314-0.434,0.564-0.746,0.75c-0.313,0.184-0.654,0.279-1.025,0.279s-0.715-0.096-1.033-0.279
				c-0.316-0.186-0.57-0.436-0.758-0.75c-0.188-0.316-0.283-0.66-0.283-1.037s0.096-0.721,0.283-1.035
				c0.188-0.311,0.441-0.559,0.758-0.74c0.318-0.184,0.662-0.275,1.033-0.275s0.713,0.092,1.025,0.275
				c0.313,0.182,0.563,0.43,0.746,0.74c0.186,0.314,0.279,0.658,0.279,1.035S130.491,53.107,130.305,53.424z"/>
		</g>
	</g>
</g>
</svg>
